name Walk4.mot
datacolumns 19
datarows 27
range 4.64900000 4.67500000
endheader

                time	   L_ground_force_vx	   L_ground_force_vy	   L_ground_force_vz	   L_ground_force_px	   L_ground_force_py	   L_ground_force_pz	   R_ground_force_vx	   R_ground_force_vy	   R_ground_force_vz	   R_ground_force_px	   R_ground_force_py	   R_ground_force_pz	   L_ground_torque_x	   L_ground_torque_y	   L_ground_torque_z	   R_ground_torque_x	   R_ground_torque_y	   R_ground_torque_z	
          4.64900000	          0.00000000	          0.00000000	          0.00000000	         -0.00000000	          0.00000000	         -0.00000000	         19.12462861	        157.89471649	          4.96778571	          0.39138528	          0.00000000	          0.14313392	          0.00000000	          0.00000000	          0.00000000	          0.00000000	         -4.14379215	          0.00000000	
          4.65000000	          0.00000000	          0.00000000	          0.00000000	         -0.00000000	          0.00000000	         -0.00000000	         17.80755855	        150.99504965	          4.97803701	          0.39071919	          0.00000000	          0.14180735	          0.00000000	          0.00000000	          0.00000000	          0.00000000	         -3.92900006	          0.00000000	
          4.65100000	          0.00000000	          0.00000000	          0.00000000	         -0.00000000	          0.00000000	         -0.00000000	         16.51677601	        144.27095126	          4.97770277	          0.38986129	          0.00000000	          0.14042274	          0.00000000	          0.00000000	          0.00000000	          0.00000000	         -3.71709987	          0.00000000	
          4.65200000	          0.00000000	          0.00000000	          0.00000000	         -0.00000000	          0.00000000	         -0.00000000	         15.25413166	        137.72367684	          4.96729686	          0.38880060	          0.00000000	          0.13897846	          0.00000000	          0.00000000	          0.00000000	          0.00000000	         -3.50842516	          0.00000000	
          4.65300000	          0.00000000	          0.00000000	          0.00000000	         -0.00000000	          0.00000000	         -0.00000000	         14.02141939	        131.35403382	          4.94731732	          0.38752615	          0.00000000	          0.13747295	          0.00000000	          0.00000000	          0.00000000	          0.00000000	         -3.30330170	          0.00000000	
          4.65400000	          0.00000000	          0.00000000	          0.00000000	         -0.00000000	          0.00000000	         -0.00000000	         12.82036447	        125.16239208	          4.91824540	          0.38602708	          0.00000000	          0.13590467	          0.00000000	          0.00000000	          0.00000000	          0.00000000	         -3.10204543	          0.00000000	
          4.65500000	          0.00000000	          0.00000000	          0.00000000	         -0.00000000	          0.00000000	         -0.00000000	         11.65261256	        119.14869893	          4.88054503	          0.38429266	          0.00000000	          0.13427218	          0.00000000	          0.00000000	          0.00000000	          0.00000000	         -2.90496062	          0.00000000	
          4.65600000	          0.00000000	          0.00000000	          0.00000000	         -0.00000000	          0.00000000	         -0.00000000	         10.51971991	        113.31249755	          4.83466258	          0.38231240	          0.00000000	          0.13257415	          0.00000000	          0.00000000	          0.00000000	          0.00000000	         -2.71233808	          0.00000000	
          4.65700000	          0.00000000	          0.00000000	          0.00000000	         -0.00000000	          0.00000000	         -0.00000000	          9.42314452	        107.65294861	          4.78102707	          0.38007610	          0.00000000	          0.13080934	          0.00000000	          0.00000000	          0.00000000	          0.00000000	         -2.52445358	          0.00000000	
          4.65800000	          0.00000000	          0.00000000	          0.00000000	         -0.00000000	          0.00000000	         -0.00000000	          8.36423862	        102.16885440	          4.72005059	          0.37757394	          0.00000000	          0.12897663	          0.00000000	          0.00000000	          0.00000000	          0.00000000	         -2.34156644	          0.00000000	
          4.65900000	          0.00000000	          0.00000000	          0.00000000	         -0.00000000	          0.00000000	         -0.00000000	          7.34424222	         96.85868564	          4.65212939	          0.37479656	          0.00000000	          0.12707507	          0.00000000	          0.00000000	          0.00000000	          0.00000000	         -2.16391830	          0.00000000	
          4.66000000	          0.00000000	          0.00000000	          0.00000000	         -0.00000000	          0.00000000	         -0.00000000	          6.36427756	         91.72061076	          4.57764588	          0.37173511	          0.00000000	          0.12510386	          0.00000000	          0.00000000	          0.00000000	          0.00000000	         -1.99173222	          0.00000000	
          4.66100000	          0.00000000	          0.00000000	          0.00000000	         -0.00000000	          0.00000000	         -0.00000000	          5.42534414	         86.75252765	          4.49697167	          0.36838143	          0.00000000	          0.12306235	          0.00000000	          0.00000000	          0.00000000	          0.00000000	         -1.82521182	          0.00000000	
          4.66200000	          0.00000000	          0.00000000	          0.00000000	         -0.00000000	          0.00000000	         -0.00000000	          4.52831360	         81.95209704	          4.41047164	          0.36472805	          0.00000000	          0.12095013	          0.00000000	          0.00000000	          0.00000000	          0.00000000	         -1.66454059	          0.00000000	
          4.66300000	          0.00000000	          0.00000000	          0.00000000	         -0.00000000	          0.00000000	         -0.00000000	          3.67392442	         77.31677668	          4.31850864	          0.36076835	          0.00000000	          0.11876697	          0.00000000	          0.00000000	          0.00000000	          0.00000000	         -1.50988120	          0.00000000	
          4.66400000	          0.00000000	          0.00000000	          0.00000000	         -0.00000000	          0.00000000	         -0.00000000	          2.86277600	         72.84385532	          4.22144835	          0.35649662	          0.00000000	          0.11651289	          0.00000000	          0.00000000	          0.00000000	          0.00000000	         -1.36137478	          0.00000000	
          4.66500000	          0.00000000	          0.00000000	          0.00000000	         -0.00000000	          0.00000000	         -0.00000000	          2.09532252	         68.53048585	          4.11966353	          0.35190815	          0.00000000	          0.11418819	          0.00000000	          0.00000000	          0.00000000	          0.00000000	         -1.21914008	          0.00000000	
          4.66600000	          0.00000000	          0.00000000	          0.00000000	         -0.00000000	          0.00000000	         -0.00000000	          1.37186677	         64.37371716	          4.01353762	          0.34699936	          0.00000000	          0.11179349	          0.00000000	          0.00000000	          0.00000000	          0.00000000	         -1.08327254	          0.00000000	
          4.66700000	          0.00000000	          0.00000000	          0.00000000	         -0.00000000	          0.00000000	         -0.00000000	          0.69255460	         60.37052443	          3.90346688	          0.34176781	          0.00000000	          0.10932971	          0.00000000	          0.00000000	          0.00000000	          0.00000000	         -0.95384322	          0.00000000	
          4.66800000	          0.00000000	          0.00000000	          0.00000000	         -0.00000000	          0.00000000	         -0.00000000	          0.05737033	         56.51783760	          3.78986133	          0.33621241	          0.00000000	          0.10679819	          0.00000000	          0.00000000	          0.00000000	          0.00000000	         -0.83089781	          0.00000000	
          4.66900000	         -0.00000000	          0.00000000	          0.00000000	         -0.00000000	          0.00000000	         -0.00000000	         -0.53386634	         52.81256794	          3.67314401	          0.33033346	          0.00000000	          0.10420060	          0.00000000	          0.00000000	          0.00000000	          0.00000000	         -0.71445576	          0.00000000	
          4.67000000	         -0.00000000	          0.00000000	          0.00000000	         -0.00000000	          0.00000000	         -0.00000000	         -1.08150131	         49.25163214	          3.55374877	          0.32413283	          0.00000000	          0.10153908	          0.00000000	          0.00000000	          0.00000000	          0.00000000	         -0.60450973	          0.00000000	
          4.67100000	         -0.00000000	          0.00000000	          0.00000000	         -0.00000000	          0.00000000	         -0.00000000	         -1.58604496	         45.83197343	          3.43211665	          0.31761409	          0.00000000	          0.09881615	          0.00000000	          0.00000000	          0.00000000	          0.00000000	         -0.50102553	          0.00000000	
          4.67200000	         -0.00000000	          0.00000000	          0.00000000	         -0.00000000	          0.00000000	         -0.00000000	         -2.04816903	         42.55057968	          3.30869148	          0.31078266	          0.00000000	          0.09603483	          0.00000000	          0.00000000	          0.00000000	          0.00000000	         -0.40394253	          0.00000000	
          4.67300000	         -0.00000000	          0.00000000	          0.00000000	         -0.00000000	          0.00000000	         -0.00000000	         -2.46870189	         39.40449851	          3.18391503	          0.30364596	          0.00000000	          0.09319861	          0.00000000	          0.00000000	          0.00000000	          0.00000000	         -0.31317442	          0.00000000	
          4.67400000	         -0.00000000	          0.00000000	          0.00000000	         -0.00000000	          0.00000000	         -0.00000000	         -2.84862292	         36.39085061	          3.05822277	          0.29621358	          0.00000000	          0.09031152	          0.00000000	          0.00000000	          0.00000000	          0.00000000	         -0.22861043	          0.00000000	
          4.67500000	         -0.00000000	          0.00000000	          0.00000000	         -0.00000000	          0.00000000	         -0.00000000	         -3.18905646	         33.50684189	          2.93204019	          0.28849739	          0.00000000	          0.08737812	          0.00000000	          0.00000000	          0.00000000	          0.00000000	         -0.15011680	          0.00000000	
